<?xml version="1.0" standalone="no"?><!DOCTYPE svg PUBLIC "-//W3C//DTD SVG 1.1//EN" "http://www.w3.org/Graphics/SVG/1.1/DTD/svg11.dtd"><svg class="icon" width="25px" height="25.00px" viewBox="0 0 1024 1024" version="1.1" xmlns="http://www.w3.org/2000/svg"><path d="M512 96c229.76 0 416 186.24 416 416s-186.24 416-416 416S96 741.76 96 512 282.24 96 512 96z m0 64a352 352 0 1 0 0 704 352 352 0 0 0 0-704z m0 277.333333a32 32 0 0 1 31.701333 27.648l0.298667 4.352v213.333334a32 32 0 0 1-63.701333 4.352L480 682.666667v-213.333334a32 32 0 0 1 32-32zM512 298.666667a42.666667 42.666667 0 1 1 0 85.333333 42.666667 42.666667 0 0 1 0-85.333333z" fill="#333333" /></svg>