<?xml version="1.0" standalone="no"?><!DOCTYPE svg PUBLIC "-//W3C//DTD SVG 1.1//EN" "http://www.w3.org/Graphics/SVG/1.1/DTD/svg11.dtd"><svg class="icon" width="32.00px" height="32.00px" viewBox="0 0 1024 1024" version="1.1" xmlns="http://www.w3.org/2000/svg"><path d="M219.428571 868.571429a100.571429 100.571429 0 0 1-100.388571-94.427429L118.857143 768V256a100.571429 100.571429 0 0 1 94.427428-100.388571L219.428571 155.428571h109.714286a210.212571 210.212571 0 0 1 182.893714 106.422858 210.029714 210.029714 0 0 1 174.738286-106.276572L694.857143 155.428571h109.714286a100.571429 100.571429 0 0 1 100.388571 94.427429L905.142857 256v512a100.571429 100.571429 0 0 1-94.427428 100.388571L804.571429 868.571429H219.428571z m585.142858-54.857143a45.714286 45.714286 0 0 0 45.494857-41.033143L850.285714 768V256a45.714286 45.714286 0 0 0-41.033143-45.494857L804.571429 210.285714h-109.714286a155.428571 155.428571 0 0 0-155.245714 147.894857L539.428571 365.714286v219.428571a27.428571 27.428571 0 0 1-23.698285 27.172572L512 612.571429a27.428571 27.428571 0 0 1-27.172571-23.698286L484.571429 585.142857v-219.428571a155.428571 155.428571 0 0 0-147.894858-155.245715L329.142857 210.285714H219.428571a45.714286 45.714286 0 0 0-45.494857 41.033143L173.714286 256v512c0 23.661714 17.993143 43.154286 41.033143 45.494857L219.428571 813.714286h585.142858z" fill="#19C15E" /></svg>