<?xml version="1.0" standalone="no"?><!DOCTYPE svg PUBLIC "-//W3C//DTD SVG 1.1//EN" "http://www.w3.org/Graphics/SVG/1.1/DTD/svg11.dtd"><svg class="icon" width="25px" height="25.00px" viewBox="0 0 1024 1024" version="1.1" xmlns="http://www.w3.org/2000/svg"><path d="M810.666667 138.666667a117.333333 117.333333 0 0 1 117.12 110.165333L928 256v384a117.333333 117.333333 0 0 1-110.165333 117.12L810.666667 757.333333h-204.501334l-205.696 123.434667a32 32 0 0 1-47.36-19.072l-0.853333-4.096-0.256-4.266667v-96H213.333333a117.333333 117.333333 0 0 1-116.48-102.869333l-0.64-7.296L96 640V256a117.333333 117.333333 0 0 1 110.165333-117.12L213.333333 138.666667h597.333334z m0 64H213.333333a53.333333 53.333333 0 0 0-53.077333 47.872L160 256v384c0 27.605333 20.992 50.346667 47.872 53.077333L213.333333 693.333333h170.666667a32 32 0 0 1 31.701333 27.648L416 725.333333v71.424l164.864-98.858666a32 32 0 0 1 7.936-3.413334l4.224-0.853333 4.309333-0.298667h213.333334a53.333333 53.333333 0 0 0 53.077333-47.872L864 640V256a53.333333 53.333333 0 0 0-47.872-53.077333L810.666667 202.666667zM512 384a42.666667 42.666667 0 0 1 42.368 37.674667L554.666667 426.666667v42.666666a42.666667 42.666667 0 0 1-85.034667 4.992L469.333333 469.333333v-42.666666a42.666667 42.666667 0 0 1 42.666667-42.666667z m170.666667 0a42.666667 42.666667 0 0 1 42.368 37.674667L725.333333 426.666667v42.666666a42.666667 42.666667 0 0 1-85.034666 4.992L640 469.333333v-42.666666a42.666667 42.666667 0 0 1 42.666667-42.666667zM341.333333 384a42.666667 42.666667 0 0 1 42.368 37.674667L384 426.666667v42.666666a42.666667 42.666667 0 0 1-85.034667 4.992L298.666667 469.333333v-42.666666a42.666667 42.666667 0 0 1 42.666666-42.666667z" fill="#333333" /></svg>