<?xml version="1.0" standalone="no"?><!DOCTYPE svg PUBLIC "-//W3C//DTD SVG 1.1//EN" "http://www.w3.org/Graphics/SVG/1.1/DTD/svg11.dtd"><svg class="icon" width="25px" height="25.00px" viewBox="0 0 1024 1024" version="1.1" xmlns="http://www.w3.org/2000/svg"><path d="M704 147.456a32 32 0 0 1 24.96 11.946667l2.773333 4.053333 192 332.544a32 32 0 0 1 2.090667 27.648l-2.133333 4.352-192 332.544a32 32 0 0 1-22.869334 15.658667l-4.821333 0.341333h-384a32 32 0 0 1-24.96-11.946667l-2.773333-4.053333-192-332.544a32 32 0 0 1-2.090667-27.648l2.133333-4.352 192-332.544a32 32 0 0 1 22.869334-15.658667l4.821333-0.341333h384z m-18.474667 63.957333H338.517333L164.949333 512l173.525334 300.544h347.093333L859.093333 512l-173.568-300.586667zM512 362.666667a149.333333 149.333333 0 1 1 0 298.666666 149.333333 149.333333 0 0 1 0-298.666666z m0 64a85.333333 85.333333 0 1 0 0 170.666666 85.333333 85.333333 0 0 0 0-170.666666z" fill="#333333" /></svg>