<?xml version="1.0" standalone="no"?><!DOCTYPE svg PUBLIC "-//W3C//DTD SVG 1.1//EN" "http://www.w3.org/Graphics/SVG/1.1/DTD/svg11.dtd"><svg class="icon" width="25px" height="25.00px" viewBox="0 0 1024 1024" version="1.1" xmlns="http://www.w3.org/2000/svg"><path d="M659.029333 144.938667l3.584 3.114666a32 32 0 0 1 3.114667 41.642667l-3.114667 3.584-73.386666 73.386667h242.773333a74.666667 74.666667 0 0 1 74.410667 68.522666L906.666667 341.333333v106.666667a74.666667 74.666667 0 0 1-63.957334 73.898667L842.666667 768a117.333333 117.333333 0 0 1-110.165334 117.12L725.333333 885.333333H298.666667a117.333333 117.333333 0 0 1-117.12-110.165333L181.333333 768v-246.101333a74.666667 74.666667 0 0 1-63.701333-67.328L117.333333 448V341.333333a74.666667 74.666667 0 0 1 68.522667-74.410666L192 266.666667h242.730667l-73.386667-73.386667a32 32 0 0 1 41.685333-48.341333l3.584 3.114666L512 253.397333l105.386667-105.386666a32 32 0 0 1 41.642666-3.072zM480 522.666667h-234.666667V768c0 25.770667 18.261333 47.274667 42.581334 52.266667l5.290666 0.810666 5.461334 0.256h181.333333v-298.666666z m298.666667 0h-234.666667v298.666666H725.333333a53.333333 53.333333 0 0 0 53.077334-47.872L778.666667 768v-245.333333z m-298.666667-192H192a10.666667 10.666667 0 0 0-10.368 8.234666L181.333333 341.333333v106.666667a10.666667 10.666667 0 0 0 8.234667 10.368l2.432 0.298667h288v-128z m352 0h-288v128h288a10.666667 10.666667 0 0 0 10.368-8.234667l0.298667-2.432V341.333333a10.666667 10.666667 0 0 0-8.234667-10.368L832 330.666667z" fill="#333333" /></svg>