<?xml version="1.0" standalone="no"?><!DOCTYPE svg PUBLIC "-//W3C//DTD SVG 1.1//EN" "http://www.w3.org/Graphics/SVG/1.1/DTD/svg11.dtd"><svg class="icon" width="32px" height="32.00px" viewBox="0 0 1024 1024" version="1.1" xmlns="http://www.w3.org/2000/svg"><path d="M804.571429 155.428571a100.571429 100.571429 0 0 1 100.388571 94.427429L905.142857 256v512a100.571429 100.571429 0 0 1-94.427428 100.388571L804.571429 868.571429h-146.285715a173.714286 173.714286 0 0 1-173.531428-165.778286L484.571429 694.857143v-201.179429l-102.4 76.836572a27.428571 27.428571 0 0 1-35.730286-2.413715L343.771429 565.028571a27.428571 27.428571 0 0 1 2.413714-35.730285l3.072-2.669715 146.285714-109.714285a27.428571 27.428571 0 0 1 29.549714-2.194286l3.364572 2.194286 146.285714 109.714285a27.428571 27.428571 0 0 1-29.476571 46.08l-3.437715-2.194285-102.4-76.836572V694.857143a118.857143 118.857143 0 0 0 112.128 118.674286l6.729143 0.182857h146.285715a45.714286 45.714286 0 0 0 45.494857-41.033143L850.285714 768V256a45.714286 45.714286 0 0 0-41.033143-45.494857L804.571429 210.285714H219.428571a45.714286 45.714286 0 0 0-45.494857 41.033143L173.714286 256v512c0 23.661714 17.993143 43.154286 41.033143 45.494857L219.428571 813.714286h109.714286a27.428571 27.428571 0 0 1 3.730286 54.601143L329.142857 868.571429H219.428571a100.571429 100.571429 0 0 1-100.388571-94.427429L118.857143 768V256a100.571429 100.571429 0 0 1 94.427428-100.388571L219.428571 155.428571h585.142858z" fill="#19C15E" /></svg>