<?xml version="1.0" standalone="no"?><!DOCTYPE svg PUBLIC "-//W3C//DTD SVG 1.1//EN" "http://www.w3.org/Graphics/SVG/1.1/DTD/svg11.dtd"><svg class="icon" width="25px" height="25.00px" viewBox="0 0 1024 1024" version="1.1" xmlns="http://www.w3.org/2000/svg"><path d="M365.312 335.744l-263.68 38.357333-4.48 0.938667a32 32 0 0 0-13.269333 53.632l190.805333 185.984-45.013333 262.698667-0.426667 4.309333a32 32 0 0 0 46.848 29.44L512 787.072l235.904 124.032 3.925333 1.749333a32 32 0 0 0 42.496-35.498666l-45.056-262.698667 190.848-186.026667 3.072-3.370666a32 32 0 0 0-20.821333-51.2l-263.722667-38.314667-117.930666-238.933333a32 32 0 0 0-57.429334 0l-117.973333 238.933333zM512 183.210667l96.682667 195.968 2.261333 3.84a32 32 0 0 0 21.845333 13.653333l216.192 31.402667-156.416 152.533333-2.986666 3.328a32 32 0 0 0-6.229334 25.002667l36.906667 215.338666-193.365333-101.674666-4.096-1.792a32 32 0 0 0-25.685334 1.792L303.701333 824.32l36.949334-215.338667 0.426666-4.437333a32 32 0 0 0-9.642666-23.893333l-156.458667-152.533334 216.234667-31.402666a32 32 0 0 0 24.106666-17.493334L512 183.210667z" fill="#333333" /></svg>