<?xml version="1.0" standalone="no"?><!DOCTYPE svg PUBLIC "-//W3C//DTD SVG 1.1//EN" "http://www.w3.org/Graphics/SVG/1.1/DTD/svg11.dtd"><svg class="icon" width="32px" height="32.00px" viewBox="0 0 1024 1024" version="1.1" xmlns="http://www.w3.org/2000/svg"><path d="M768 155.428571a27.428571 27.428571 0 0 1 3.730286 54.601143L768 210.285714H219.428571a45.714286 45.714286 0 0 0-45.494857 41.033143L173.714286 256v512c0 23.661714 17.993143 43.154286 41.033143 45.494857L219.428571 813.714286h475.428572a155.428571 155.428571 0 0 0 155.245714-147.894857L850.285714 658.285714V329.142857a27.428571 27.428571 0 0 1 54.601143-3.730286L905.142857 329.142857v329.142857a210.285714 210.285714 0 0 1-202.24 210.139429l-8.045714 0.146286H219.428571a100.571429 100.571429 0 0 1-100.388571-94.427429L118.857143 768V256a100.571429 100.571429 0 0 1 94.427428-100.388571L219.428571 155.428571h548.571429z m-182.857143 365.714286a27.428571 27.428571 0 0 1 3.730286 54.601143L585.142857 576H329.142857a27.428571 27.428571 0 0 1-3.730286-54.601143L329.142857 521.142857h256z m109.714286-146.285714a27.428571 27.428571 0 0 1 3.730286 54.601143L694.857143 429.714286H329.142857a27.428571 27.428571 0 0 1-3.730286-54.601143L329.142857 374.857143h365.714286z" fill="#19C15E" /></svg>