<?xml version="1.0" standalone="no"?><!DOCTYPE svg PUBLIC "-//W3C//DTD SVG 1.1//EN" "http://www.w3.org/Graphics/SVG/1.1/DTD/svg11.dtd"><svg class="icon" width="32px" height="32.00px" viewBox="0 0 1024 1024" version="1.1" xmlns="http://www.w3.org/2000/svg"><path d="M758.24 587.968l95.904 139.52A128 128 0 0 1 748.672 928H275.328a128 128 0 0 1-105.472-200.512l57.28-83.36 4.64 2.24a319.008 319.008 0 0 0 273.312-4.416l20.8-10.72a429.696 429.696 0 0 1 232.352-43.264zM640 272v124.128a64 64 0 0 0 11.264 36.256l72.672 105.696a477.696 477.696 0 0 0-219.328 50.112l-21.696 11.2a271.008 271.008 0 0 1-228.192 4.64l118.016-171.648A64 64 0 0 0 384 396.128V272h256zM640 96a64 64 0 1 1 0 128h-256a64 64 0 1 1 0-128h256z" fill="#708DFF" /></svg>