<?xml version="1.0" standalone="no"?><!DOCTYPE svg PUBLIC "-//W3C//DTD SVG 1.1//EN" "http://www.w3.org/Graphics/SVG/1.1/DTD/svg11.dtd"><svg class="icon" width="32px" height="32.00px" viewBox="0 0 1024 1024" version="1.1" xmlns="http://www.w3.org/2000/svg"><path d="M246.976 582.176a407.136 407.136 0 0 0 155.328 82.88l-75.008 225.056a32 32 0 0 1-30.368 21.888H229.76a32 32 0 0 1-31.552-37.248l48.768-292.576z m530.048 0.032l48.768 292.544a32 32 0 0 1-27.84 37.024l-3.712 0.224h-67.2a32 32 0 0 1-28.96-18.432l-1.376-3.456-74.976-225.024a407.04 407.04 0 0 0 155.296-82.88z m86.048-230.144a360.576 360.576 0 0 1-260.576 268.48l-23.84 262.368a32 32 0 0 1-31.872 29.088h-69.568a32 32 0 0 1-31.872-29.12l-23.84-262.368a360.544 360.544 0 0 1-260.576-268.48H863.04zM864 112a64 64 0 0 1 64 64v64a64 64 0 0 1-64 64H160a64 64 0 0 1-64-64v-64a64 64 0 0 1 64-64h704z" fill="#708DFF" /></svg>