<?xml version="1.0" standalone="no"?><!DOCTYPE svg PUBLIC "-//W3C//DTD SVG 1.1//EN" "http://www.w3.org/Graphics/SVG/1.1/DTD/svg11.dtd"><svg class="icon" width="32px" height="32.00px" viewBox="0 0 1024 1024" version="1.1" xmlns="http://www.w3.org/2000/svg"><path d="M443.072 911.936l8.544 11.712a416.192 416.192 0 0 1-295.232-195.648h190.848c21.824 64.096 53.76 125.44 95.84 183.936z m424.544-183.936a416.192 416.192 0 0 1-295.264 195.648c46.304-62.08 81.12-127.264 104.416-195.616zM514.56 919.744l-2.592 3.072-2.56-3.072c-49.344-60.8-86.4-124.672-111.264-191.744h227.648c-24.864 67.072-61.92 130.944-111.232 191.744z m-181.696-239.744h-201.6a413.76 413.76 0 0 1-34.624-144h215.744c1.664 49.376 8.48 97.376 20.48 144z m330.624-144l0.32-9.152a618.88 618.88 0 0 1-22.432 153.184h-258.816a617.056 617.056 0 0 1-22.144-144l303.072-0.032z m263.808 0a413.76 413.76 0 0 1-34.656 144h-201.568c12-46.624 18.816-94.624 20.48-144z m-614.912-48H96.64a413.76 413.76 0 0 1 34.656-144h201.568a667.104 667.104 0 0 0-20.48 144z m351.136 0h-303.104c1.792-49.504 9.152-97.504 22.144-144h258.816c12.992 46.496 20.352 94.496 22.144 144z m229.12-144a413.76 413.76 0 0 1 34.656 144h-215.744a667.104 667.104 0 0 0-20.48-144z m-545.44-48H156.384a416.192 416.192 0 0 1 295.232-195.648c-46.272 62.048-81.12 127.264-104.384 195.648zM512 101.12l2.56 3.104c49.344 60.8 86.4 124.672 111.264 191.744h-227.648c24.864-67.072 61.92-130.944 111.232-191.744L512 101.152z m60.32-0.8a416.192 416.192 0 0 1 295.296 195.648h-190.848c-21.824-64.064-53.76-125.44-95.84-183.936z" fill="#28ADF8" /></svg>