<?xml version="1.0" standalone="no"?><!DOCTYPE svg PUBLIC "-//W3C//DTD SVG 1.1//EN" "http://www.w3.org/Graphics/SVG/1.1/DTD/svg11.dtd"><svg class="icon" width="32px" height="32.00px" viewBox="0 0 1024 1024" version="1.1" xmlns="http://www.w3.org/2000/svg"><path d="M288 64a80 80 0 0 1 48.032 144L336 864h64a32 32 0 0 1 0 64h-224a32 32 0 0 1 0-64h64V208a79.904 79.904 0 0 1-31.84-58.752L208 144A80 80 0 0 1 288 64z m528 144a64 64 0 0 1 64 64v256a64 64 0 0 1-64 64h-416c-5.536 0-10.88-0.704-16.032-2.016V210.016c5.12-1.312 10.496-2.016 16.032-2.016h416z" fill="#00CD93" /></svg>