<?xml version="1.0" standalone="no"?><!DOCTYPE svg PUBLIC "-//W3C//DTD SVG 1.1//EN" "http://www.w3.org/Graphics/SVG/1.1/DTD/svg11.dtd"><svg class="icon" width="32px" height="32.00px" viewBox="0 0 1024 1024" version="1.1" xmlns="http://www.w3.org/2000/svg"><path d="M544 92.8a32 32 0 0 1 32 32v42.944a192.064 192.064 0 0 1 108.384 265.664l-4.96 9.408 150.912 261.344c5.44-2.176 11.424-3.36 17.664-3.36h32l4.608 0.224A48 48 0 0 1 928 748.8l-0.224 4.192-0.224 2.432-0.96 4.896-1.408 4.704a48.032 48.032 0 0 1-41.44 31.648l19.68 34.112a64 64 0 1 1-110.848 64l-211.712-366.72A191.552 191.552 0 0 1 512 540.8c-24.256 0-47.488-4.48-68.864-12.704l-211.712 366.72a64 64 0 1 1-110.848-64l19.68-34.208h-0.864a48 48 0 0 1-36.704-23.36l-2.08-3.904-0.064-0.096-1.568-3.808-0.544-1.472-1.408-5.216-0.576-3.392-0.16-1.376a48.576 48.576 0 0 1 1.472-18.112l1.12-3.52 1.696-4 1.856-3.552 2.88-4.48 2.592-3.2 2.272-2.368 3.072-2.784 3.488-2.688 3.584-2.24 3.648-1.856 3.936-1.6 3.424-1.088 3.744-0.864 5.024-0.672 3.904-0.16h32c6.24 0 12.192 1.184 17.664 3.36l150.912-261.312A192.064 192.064 0 0 1 448 167.744L448 124.8a32 32 0 0 1 32-32h64z m-32 512a64 64 0 0 1 64 64v31.968h49.12l55.424 96H576V828.8a64 64 0 1 1-128 0v-32.032h-104.576l55.456-96L448 700.704V668.8a64 64 0 0 1 64-64z m0-320a64 64 0 1 0 0 128 64 64 0 0 0 0-128z" fill="#28ADF8" /></svg>