<?xml version="1.0" standalone="no"?><!DOCTYPE svg PUBLIC "-//W3C//DTD SVG 1.1//EN" "http://www.w3.org/Graphics/SVG/1.1/DTD/svg11.dtd"><svg class="icon" width="32px" height="32.00px" viewBox="0 0 1024 1024" version="1.1" xmlns="http://www.w3.org/2000/svg"><path d="M864 424v136c0 194.4-157.6 352-352 352s-352-157.6-352-352v-136h224v136a128 128 0 0 0 121.6 127.84l6.4 0.16a128 128 0 0 0 127.84-121.6l0.16-6.4v-136h224zM320 144a64 64 0 0 1 64 64v168H160V208a64 64 0 0 1 64-64h96z m480 0a64 64 0 0 1 64 64v168h-224V208a64 64 0 0 1 64-64h96z" fill="#00CD93" /></svg>