<?xml version="1.0" standalone="no"?><!DOCTYPE svg PUBLIC "-//W3C//DTD SVG 1.1//EN" "http://www.w3.org/Graphics/SVG/1.1/DTD/svg11.dtd"><svg class="icon" width="32px" height="32.00px" viewBox="0 0 1024 1024" version="1.1" xmlns="http://www.w3.org/2000/svg"><path d="M576 736a32 32 0 0 1 0-64h224a32 32 0 0 1 0 64h-32v64h96a32 32 0 0 1 32 32v64a32 32 0 0 1-32 32H160a32 32 0 0 1-32-32v-64a32 32 0 0 1 32-32h90.976c-49.024-176.768-24.64-329.024 73.696-452.416l52.672 91.2C314.24 537.472 305.28 656.64 351.04 800H608v-64h-32z m-1.152-563.136l112 193.984 13.856-8a48 48 0 0 1 48 83.136l-249.408 144a48 48 0 1 1-48-83.136l13.856-8-112-193.984a128 128 0 1 1 221.696-128z" fill="#28ADF8" /></svg>