<?xml version="1.0" standalone="no"?><!DOCTYPE svg PUBLIC "-//W3C//DTD SVG 1.1//EN" "http://www.w3.org/Graphics/SVG/1.1/DTD/svg11.dtd"><svg class="icon" width="32px" height="32.00px" viewBox="0 0 1024 1024" version="1.1" xmlns="http://www.w3.org/2000/svg"><path d="M784 787.136a64 64 0 1 1 0 128h-544a64 64 0 1 1 0-128h544zM488 80v326.176a96.032 96.032 0 0 0 0 185.92v147.008H285.536L212.384 501.44a128 128 0 0 1 24-119.584L488 80z m48.032 326.176V80l251.552 301.856a128 128 0 0 1 24 119.584l-73.12 237.664H536v-147.008a96.032 96.032 0 0 0 0.032-185.92z" fill="#FFAA2C" /></svg>