<?xml version="1.0" standalone="no"?><!DOCTYPE svg PUBLIC "-//W3C//DTD SVG 1.1//EN" "http://www.w3.org/Graphics/SVG/1.1/DTD/svg11.dtd"><svg class="icon" width="128px" height="20.21px" viewBox="0 0 6485 1024" version="1.1" xmlns="http://www.w3.org/2000/svg"><path d="M2446.208 0A113.792 113.792 0 0 1 2560 113.792v796.416A113.792 113.792 0 0 1 2446.208 1024H113.792A113.792 113.792 0 0 1 0 910.208V113.792A113.792 113.792 0 0 1 113.792 0h2332.416z m2975.701333 85.333333l-73.642666 187.306667h266.922666l-15.189333 97.152h-66.389333c-35.925333 121.941333-77.994667 223.701333-120.192 307.242667l-5.632 11.050666L5518.634667 938.666667h-104.661334l-64.938666-146.773334-5.845334 9.258667a1136.725333 1136.725333 0 0 1-90.88 124.714667l-11.008 12.8h-138.794666l25.301333-21.248c6.528-5.802667 78.72-71.338667 160.597333-211.925334l12.629334-22.101333-74.24-167.936h104.661333l25.344 57.258667a1745.578667 1745.578667 0 0 0 74.112-194.176l2.730667-8.746667h-123.562667l-40.96 104.064h-102.784L5319.082667 85.333333h102.826666z m-376.746666 0l-9.728 62.421334h84.949333l-15.189333 97.152h-84.949334l-11.946666 76.330666h57.813333c6.826667-10.24 13.056-20.138667 18.645333-29.568 41.728-70.570667 56.917333-128.981333 62.208-157.013333l1.365334-7.68h96.298666l-1.152 9.514667c-5.76 42.325333-33.408 176.085333-161.152 321.493333l-14.336 15.872h40.661334c19.498667 0 37.12 12.074667 44.330666 30.506667 6.912 17.792 3.072 37.930667-9.856 51.626666l-95.658666 92.8 123.605333-15.018666-15.616 99.712-155.306667 18.858666-27.733333 186.325334h-217.941333l15.189333-97.109334h120.661333l11.52-77.226666-169.514666 20.565333 12.245333-78.293333-11.093333 5.418666-40.704 19.498667 18.176-116.224c31.658667-15.786667 60.928-32 88.106666-48.554667l6.741334-4.138666 13.909333-88.746667h108.458667c19.882667-16.981333 37.930667-33.92 54.229333-50.517333l4.864-4.992h-230.186667l15.189334-97.109334h139.349333l11.946667-76.373333h-113.322667l15.189333-97.109333h113.322667l9.813333-62.421334h96.64zM4114.048 626.474667l-33.706667 215.04h353.28L4418.389333 938.666667h-393.984a47.36 47.36 0 0 1-36.309333-17.066667 49.152 49.152 0 0 1-11.093333-37.12l40.32-258.005333h96.682666z m2228.821333-187.306667c13.994667 0 27.306667 6.229333 36.352 17.066667 8.661333 10.24 12.629333 23.808 11.050667 37.205333L6320.554667 938.666667h-183.936l15.189333-97.109334h87.338667l6.485333-41.642666h-442.026667l-21.76 138.752h-96.597333l78.208-499.498667h579.413333zM3439.189333 85.333333l-34.986666 40.277334-12.117334 13.098666-8.704 9.045334h278.485334c11.946667 0 23.765333 3.925333 32.682666 11.946666 17.066667 15.488 20.736 39.722667 10.922667 58.965334l-2.730667 4.864c-15.104 25.173333-113.450667 175.445333-358.357333 260.992-0.810667 3.584-1.706667 7.125333-2.688 10.666666l-1.536 5.376h336.597333c16.469333 0 31.829333 8.661333 40.533334 22.954667 8.704 14.250667 9.557333 32.085333 2.218666 47.146667l-5.674666 10.581333c-34.56 60.544-228.778667 348.842667-793.642667 357.248L2901.333333 938.666667l15.232-97.28c101.76-1.408 226.389333-13.568 348.544-51.925334l6.912-2.176-62.037333-119.168h108.032l44.074667 84.650667a732.288 732.288 0 0 0 121.685333-68.906667 603.946667 603.946667 0 0 0 87.850667-74.922666l10.453333-11.264h-298.368c-49.792 53.034667-126.208 90.282667-228.266667 111.232l-22.656 4.266666-16.042666 2.816 15.914666-101.546666c93.482667-18.56 158.08-51.029333 192.768-96.725334-74.24 15.914667-158.677333 25.770667-254.421333 26.325334h-18.858667l15.232-97.152c113.408-0.426667 208.64-15.061333 287.701334-36.693334a270.165333 270.165333 0 0 0-22.826667-88.32l-3.626667-7.552-11.434666-20.864h107.050666c8.149333 20.096 18.346667 50.218667 23.466667 85.674667a710.4 710.4 0 0 0 133.333333-69.930667c26.794667-18.133333 49.28-36.266667 67.882667-53.205333l11.818667-11.093333h-289.024c-59.136 43.008-131.541333 82.432-204.501334 89.429333l-4.224 0.426667 15.701334-100.266667c80.341333-17.066667 168.362667-88.064 221.525333-139.605333L3309.909333 85.333333h129.28z m531.114667 568.874667l-115.669333 256.725333h-105.002667l115.626667-256.725333h105.045333z m543.786667 0l94.549333 256.725333h-101.973333l-94.506667-256.725333h101.930667zM564.48 187.733333H303.914667l-103.253334 648.533334H494.933333a209.578667 209.578667 0 0 0 207.872-177.408l41.472-260.437334a181.802667 181.802667 0 0 0-41.301333-146.773333A181.76 181.76 0 0 0 564.522667 187.733333z m525.952 0H1009.493333a209.536 209.536 0 0 0-207.872 177.408l-41.472 260.437334a181.802667 181.802667 0 0 0 41.301334 146.816A181.76 181.76 0 0 0 939.946667 836.266667h80.938666a209.578667 209.578667 0 0 0 207.872-177.408l41.472-260.437334a181.76 181.76 0 0 0-41.301333-146.773333A181.76 181.76 0 0 0 1090.474667 187.733333z m539.136 0h-80.938667a209.536 209.536 0 0 0-207.872 177.408l-41.472 260.437334a181.802667 181.802667 0 0 0 41.301334 146.816 181.76 181.76 0 0 0 138.496 63.872h80.938666a209.578667 209.578667 0 0 0 207.872-177.408l41.472-260.437334a181.76 181.76 0 0 0-41.301333-146.773333A181.76 181.76 0 0 0 1629.610667 187.733333z m752.469333 0h-269.994666a237.909333 237.909333 0 0 0-233.813334 189.909334l-2.432 13.610666a164.864 164.864 0 0 0 71.68 161.152 164.309333 164.309333 0 0 0 91.733334 27.861334h108.501333a28.586667 28.586667 0 0 1 28.288 33.109333 101.973333 101.973333 0 0 1-101.12 86.357333h-248.234667l-21.76 136.533334h269.994667a237.909333 237.909333 0 0 0 233.813333-189.909334l2.304-12.330666 0.170667-1.408a165.205333 165.205333 0 0 0-163.413333-188.885334h-108.544a28.544 28.544 0 0 1-28.245334-33.152 101.973333 101.973333 0 0 1 101.12-86.314666h248.192l21.76-136.533334z m1894.528 411.008l52.693334 194.218667h-98.986667l-52.736-194.218667h99.029333z m1989.674667 69.376h-442.026667l-5.461333 34.688h442.026667l5.461333-34.688zM1090.474667 324.266667a45.44 45.44 0 0 1 44.928 52.650666l-41.472 260.48a73.642667 73.642667 0 0 1-73.045334 62.336H939.946667a45.44 45.44 0 0 1-44.928-52.650666l41.472-260.48A73.6 73.6 0 0 1 1009.493333 324.266667h80.938667z m539.136 0a45.44 45.44 0 0 1 44.970666 52.650666l-41.472 260.48a73.642667 73.642667 0 0 1-73.045333 62.336h-80.938667a45.44 45.44 0 0 1-44.970666-52.650666l41.472-260.48A73.6 73.6 0 0 1 1548.672 324.266667h80.938667z m-1065.088 0a45.44 45.44 0 0 1 44.928 52.650666l-41.472 260.48A73.6 73.6 0 0 1 494.933333 699.733333H360.661333l59.776-375.466666h144.085334z m4424.789333 246.698666h-26.666667a1146.325333 1146.325333 0 0 1-157.696 104.277334l-6.997333 3.84 118.698667-14.421334 4.096-27.221333 68.565333-66.474667zM4570.24 85.333333c13.994667 0 27.306667 6.229333 36.352 17.066667 8.661333 10.24 12.629333 23.68 11.093333 37.034667l-67.541333 431.530666h-655.786667L3970.474667 85.333333h599.808z m1716.650667 450.986667h-442.026667l-5.418667 34.645333h442.026667l5.418667-34.688z m-1802.965334-159.573333h-182.912l-15.232 97.109333h182.954667l15.189333-97.152z m-279.594666 0h-182.912l-15.189334 97.109333h182.912l15.189334-97.152zM6144.682667 85.333333l32.682666 62.421334H6485.333333l-15.189333 97.152h-392.490667l-84.992 62.421333h300.586667l-12.8-34.688h101.973333l48.512 131.84h-733.482666l217.173333-159.573333h-196.266667l15.146667-97.152h335.701333L6036.522667 85.333333h108.16z m-1630.336 97.109334h-182.954667l-15.189333 97.152h182.912l15.232-97.152z m-279.594667 0h-182.912l-15.232 97.152h182.954667l15.189333-97.152z" fill="#19C15E" /></svg>