<?xml version="1.0" standalone="no"?><!DOCTYPE svg PUBLIC "-//W3C//DTD SVG 1.1//EN" "http://www.w3.org/Graphics/SVG/1.1/DTD/svg11.dtd"><svg class="icon" width="32px" height="32.00px" viewBox="0 0 1024 1024" version="1.1" xmlns="http://www.w3.org/2000/svg"><path d="M418.133333 896H179.2V128h640v298.666667a21.333333 21.333333 0 1 0 42.666667 0V106.666667a21.333333 21.333333 0 0 0-21.333334-21.333334h-682.666666a21.333333 21.333333 0 0 0-21.333334 21.333334v810.666666a21.333333 21.333333 0 0 0 21.333334 21.333334H418.133333a21.333333 21.333333 0 1 0 0-42.666667z" fill="#2c2c2c" /><path d="M772.266667 268.8A21.333333 21.333333 0 0 0 750.933333 247.466667H247.466667a21.333333 21.333333 0 1 0 0 42.666666h503.466666a21.333333 21.333333 0 0 0 21.333334-21.333333zM247.466667 409.6a21.333333 21.333333 0 1 0 0 42.666667h247.466666a21.333333 21.333333 0 1 0 0-42.666667H247.466667zM805.316267 655.8464c19.268267 0 35.7376 8.900267 40.9856 22.152533a21.333333 21.333333 0 0 0 41.1648-7.8592V550.4a21.333333 21.333333 0 0 0-21.333334-21.333333H774.698667c8.3968-16.384 13.0816-34.688 13.090133-52.923734-0.008533-58.1888-47.675733-107.349333-104.0896-107.349333-27.886933 0-54.237867 11.8784-74.231467 33.4336-19.029333 20.5312-29.943467 48.0256-29.934933 75.451733 0 17.877333 4.437333 35.515733 12.544 51.3792H499.2a21.333333 21.333333 0 0 0-21.333333 21.333334v73.489066c-13.568-7.176533-28.2112-10.709333-44.117334-10.709333-56.7552 0-102.929067 46.754133-102.929066 104.2176 0 58.453333 44.936533 104.234667 102.289066 104.234667 16.1792 0 31.035733-3.566933 44.757334-10.794667V917.333333a21.333333 21.333333 0 0 0 21.333333 21.333334h366.933333a21.333333 21.333333 0 0 0 21.333334-21.333334V764.6976a21.333333 21.333333 0 0 0-41.156267-7.867733c-5.256533 13.2352-21.7344 22.135467-41.002667 22.135466a61.201067 61.201067 0 0 1-43.5456-18.030933 61.1328 61.1328 0 0 1-18.030933-43.528533c0-33.937067 27.630933-61.559467 61.585067-61.559467z m-73.719467 135.261867a103.560533 103.560533 0 0 0 73.710933 30.523733c14.242133 0 27.6736-2.824533 39.492267-7.995733V896H520.533333V764.689067a21.3248 21.3248 0 0 0-38.0416-13.252267c-15.112533 19.037867-30.336 27.537067-49.3824 27.537067-33.4336 0-59.6224-27.042133-59.6224-61.568 0-34.517333 26.4704-61.550933 60.2624-61.550934 18.858667 0 33.425067 8.234667 48.725334 27.5456a21.3504 21.3504 0 0 0 23.739733 6.903467A21.367467 21.367467 0 0 0 520.533333 670.139733V571.733333h115.9168a21.3248 21.3248 0 1 0 13.252267-38.050133c-16.964267-13.457067-27.511467-34.909867-27.511467-56.004267-0.008533-16.785067 6.7584-33.706667 18.551467-46.429866 11.8272-12.757333 27.0848-19.780267 42.948267-19.780267 33.288533 0 61.4144 29.627733 61.422933 64.682667-0.008533 21.205333-11.195733 44.330667-27.8528 57.540266a21.333333 21.333333 0 0 0 13.252267 38.050134H844.8v49.442133c-11.818667-5.162667-25.2416-7.995733-39.483733-7.995733-57.480533 0-104.251733 46.754133-104.251734 104.226133a103.5008 103.5008 0 0 0 30.532267 73.693867z" fill="#2c2c2c" /></svg>