<?xml version="1.0" standalone="no"?><!DOCTYPE svg PUBLIC "-//W3C//DTD SVG 1.1//EN" "http://www.w3.org/Graphics/SVG/1.1/DTD/svg11.dtd"><svg class="icon" width="32px" height="32.00px" viewBox="0 0 1024 1024" version="1.1" xmlns="http://www.w3.org/2000/svg"><path d="M873.984 456.704c-11.264 0-20.48 9.216-20.48 20.48v378.88c0 16.896-13.824 30.72-30.72 30.72h-655.36c-16.896 0-30.72-13.824-30.72-30.72V201.216c0-16.896 13.824-30.72 30.72-30.72h378.88c11.264 0 20.48-9.216 20.48-20.48s-9.216-20.48-20.48-20.48h-378.88c-39.424 0-71.68 32.256-71.68 71.68v654.848c0 39.424 32.256 71.68 71.68 71.68h654.848c39.424 0 71.68-32.256 71.68-71.68v-378.88c0.512-11.264-8.704-20.48-19.968-20.48z" fill="#2c2c2c" /><path d="M942.08 189.952L869.888 117.76c-9.728-9.728-22.528-14.848-36.352-14.848-13.824 0-26.624 5.12-36.352 14.848l-401.92 402.432c-6.656 6.656-11.776 15.36-13.824 25.088L353.28 669.696c-2.56 10.24 0.512 20.992 8.192 28.672 5.632 5.632 13.824 9.216 21.504 9.216 2.048 0 4.608 0 6.656-1.024l125.44-28.16c9.216-2.048 17.92-6.656 25.088-13.824L942.08 262.144c19.968-19.968 19.968-52.224 0-72.192z m-28.672 43.52l-401.92 402.432c-1.536 1.536-3.072 2.56-5.12 2.56l-109.568 24.576 24.576-109.568c0.512-2.048 1.536-3.584 2.56-5.12l401.92-402.432c2.56-2.56 5.632-3.072 7.168-3.072s4.608 0.512 7.168 3.072l72.192 72.192c5.12 4.608 5.12 11.264 1.024 15.36z" fill="#2c2c2c" /></svg>