<?xml version="1.0" standalone="no"?><!DOCTYPE svg PUBLIC "-//W3C//DTD SVG 1.1//EN" "http://www.w3.org/Graphics/SVG/1.1/DTD/svg11.dtd"><svg class="icon" width="32px" height="32.00px" viewBox="0 0 1024 1024" version="1.1" xmlns="http://www.w3.org/2000/svg"><path d="M810.667 454.646c0-23.564 19.102-42.667 42.666-42.667 23.564 0 42.667 19.103 42.667 42.667v356.02C896 857.796 857.795 896 810.667 896H213.333C166.205 896 128 857.795 128 810.667V213.333C128 166.205 166.205 128 213.333 128h597.334C857.795 128 896 166.205 896 213.333v66.896c0 23.564-19.103 42.667-42.667 42.667s-42.666-19.103-42.666-42.667v-66.896H213.333v597.334h597.334V454.646z m-98-40.402c18.851 0 34.133 15.282 34.133 34.133 0 18.852-15.282 34.134-34.133 34.134H320c-30.41 0-45.639-36.767-24.136-58.27l96.378-96.377c13.33-13.33 34.941-13.33 48.271 0 13.33 13.33 13.33 34.942 0 48.272l-38.108 38.108h310.262z m-82.473 195.89H319.932c-18.852 0-34.134-15.283-34.134-34.134s15.282-34.133 34.134-34.133h392.667c30.41 0 45.638 36.766 24.136 58.269l-96.378 96.377c-13.33 13.33-34.942 13.33-48.272 0-13.33-13.33-13.33-34.942 0-48.271l38.109-38.109z" fill="#f47463" /></svg>