<?xml version="1.0" standalone="no"?><!DOCTYPE svg PUBLIC "-//W3C//DTD SVG 1.1//EN" "http://www.w3.org/Graphics/SVG/1.1/DTD/svg11.dtd"><svg class="icon" width="32px" height="32.00px" viewBox="0 0 1024 1024" version="1.1" xmlns="http://www.w3.org/2000/svg"><path d="M97.5 511.7c0-228.6 186-414.5 414.5-414.5 155.9 0 296.2 85.4 367.9 223.3l-25.3-7.6c-8.7-2.6-17.9 2.3-20.5 11.1-2.6 8.7 2.3 17.9 11.1 20.5l61.3 18.3c1.6 0.5 3.2 0.7 4.7 0.7 7.1 0 13.7-4.6 15.8-11.8l18.3-61.3c2.6-8.7-2.3-17.9-11.1-20.5-8.7-2.6-17.9 2.3-20.5 11.1l-6.3 20.9c-36.5-68.7-90.3-126.9-156.3-168.6C679.7 88.1 597 64.2 512 64.2c-60.4 0-119 11.8-174.2 35.2-53.3 22.5-101.2 54.8-142.2 95.9s-73.4 89-95.9 142.2c-23.3 55.2-35.2 113.8-35.2 174.2 0 9.1 7.4 16.5 16.5 16.5s16.5-7.4 16.5-16.5zM943 495.2c-9.1 0-16.5 7.4-16.5 16.5 0 228.6-186 414.5-414.5 414.5-155.3 0-295.2-84.8-367.2-222l24.7 9.4c8.5 3.2 18-1.1 21.3-9.6s-1.1-18-9.6-21.3l-59.9-22.6c-8.5-3.2-18 1.1-21.3 9.6l-22.6 59.9c-3.2 8.5 1.1 18 9.6 21.3 1.9 0.7 3.9 1.1 5.8 1.1 6.7 0 12.9-4.1 15.4-10.7l7.8-20.7c36.6 69.3 90.8 127.8 157.3 169.8 71.3 45 153.8 68.8 238.6 68.8 60.4 0 119-11.8 174.2-35.2 53.3-22.5 101.2-54.8 142.2-95.9s73.4-89 95.9-142.2c23.3-55.2 35.2-113.8 35.2-174.2 0.1-9.1-7.3-16.5-16.4-16.5z" fill="#2c2c2c" /><path d="M697.3 263.5C643.5 223.3 579.4 202 512 202c-82.7 0-160.5 32.2-219 90.7s-90.7 136.3-90.7 219 32.2 160.5 90.7 219 136.3 90.7 219 90.7 160.5-32.2 219-90.7 90.7-136.3 90.7-219c0-31.4-4.7-62.4-13.9-92.1-9.7-31.2-24.2-60.5-43.2-87.2-18.8-26.3-41.4-49.5-67.3-68.9z m104.4 248.2c0 159.8-130 289.7-289.7 289.7s-289.7-130-289.7-289.7S352.3 222 512 222c127.6 0 238.8 81.8 276.7 203.6 8.6 27.8 13 56.7 13 86.1z" fill="#2c2c2c" /><path d="M623.6 474.3c9.1 0 16.5-7.4 16.5-16.5s-7.4-16.5-16.5-16.5h-84.2l61.5-62c6.4-6.5 6.4-16.9-0.1-23.3s-16.9-6.4-23.3 0.1L512 422l-66.1-66.1c-6.4-6.4-16.9-6.4-23.3 0s-6.4 16.9 0 23.3l62 62h-84.7c-9.1 0-16.5 7.4-16.5 16.5s7.4 16.5 16.5 16.5h95.5l0.3 54h-95.8c-9.1 0-16.5 7.4-16.5 16.5s7.4 16.5 16.5 16.5h96l0.5 95.4c0.1 9.1 7.4 16.4 16.5 16.4h0.1c9.1-0.1 16.5-7.5 16.4-16.6l-0.5-95.2h94.8c9.1 0 16.5-7.4 16.5-16.5s-7.4-16.5-16.5-16.5h-95l-0.3-54 95.2 0.1z" fill="#2c2c2c" /></svg>